<svg id="Capa_1" data-name="Capa 1" xmlns="http://www.w3.org/2000/svg" viewBox="0 0 512 512"><defs><style>.cls-1{fill:#ff7290;}.cls-2{fill:#ff9f9d;}.cls-3{fill:#ffc0b6;}.cls-4{fill:#ffe5ce;}</style></defs><title>pink工作區域 1</title><path class="cls-1" d="M364.17,0h-30.9l15.45,128.92h30.9V15.45A15.45,15.45,0,0,0,364.17,0Z"/><path class="cls-2" d="M333.26,0H147.83a15.45,15.45,0,0,0-15.45,15.45V128.92H348.72V15.45A15.45,15.45,0,0,0,333.26,0Z"/><path class="cls-3" d="M212.29,18.1,18.1,212.29A61.62,61.62,0,0,0,0,256a92.38,92.38,0,0,0,23.94,62.18H256V0A61.61,61.61,0,0,0,212.29,18.1Z"/><path class="cls-4" d="M23.94,318.18a92.71,92.71,0,0,0,62.18,107.7H256V0Z"/><path class="cls-3" d="M86.12,425.88a92.71,92.71,0,0,0,107.7,62.18H256V0Z"/><path class="cls-2" d="M493.9,212.29,299.71,18.1A61.62,61.62,0,0,0,256,0V8.29a62,62,0,0,1,12.8,9.81L457.15,318.18h30.9A92.37,92.37,0,0,0,512,256,61.62,61.62,0,0,0,493.9,212.29Z"/><path class="cls-3" d="M463,212.29,268.8,18.1A62.07,62.07,0,0,0,256,8.29V318.18H457.15A92.37,92.37,0,0,0,481.09,256,61.61,61.61,0,0,0,463,212.29Z"/><path class="cls-3" d="M270.29,19.59,256,0V8.29a62,62,0,0,1,12.8,9.81Z"/><path class="cls-3" d="M488.06,318.18,472,296.12l-77-30.9V425.88h30.9a92.71,92.71,0,0,0,62.18-107.7Z"/><path class="cls-4" d="M446.8,384a92.37,92.37,0,0,0,10.35-65.82A92.89,92.89,0,0,0,472,296.12L270.29,19.59,268.8,18.1A62.11,62.11,0,0,0,256,8.29V425.88H395A92.36,92.36,0,0,0,446.8,384Z"/><path class="cls-2" d="M420.7,412.89,322.2,382V488.83a92.71,92.71,0,0,0,103.68-63Z"/><path class="cls-3" d="M256,0V8.29q2.28,1.32,4.43,2.82Z"/><path class="cls-3" d="M256,8.29V488.06h62.18q2,.43,4,.77a92.72,92.72,0,0,0,72.78-63,92.83,92.83,0,0,0,25.73-13L260.43,11.11Q258.28,9.61,256,8.29Z"/><path class="cls-4" d="M193.82,488.06a92.71,92.71,0,0,0,124.36,0L256,0Z"/></svg>