<?xml version="1.0" encoding="utf-8"?>
<!-- Generator: Adobe Illustrator 21.0.0, SVG Export Plug-In . SVG Version: 6.00 Build 0)  -->
<svg version="1.1" id="Capa_1" xmlns="http://www.w3.org/2000/svg" xmlns:xlink="http://www.w3.org/1999/xlink" x="0px" y="0px"
	 viewBox="0 0 512 512" style="enable-background:new 0 0 512 512;" xml:space="preserve">
<style type="text/css">
	.st0{fill:#8D93FF;}
	.st1{fill:#B6BEFF;}
	.st2{fill:#B6D0FF;}
	.st3{fill:#E6F1FF;}
	.st4{fill:#B6DAFF;}
</style>
<title>purple工作區域 1</title>
<path class="st0" d="M364.2,0h-30.9l15.5,128.9h30.9V15.4C379.6,6.9,372.7,0,364.2,0C364.2,0,364.2,0,364.2,0z"/>
<path class="st1" d="M333.3,0H147.8c-8.5,0-15.4,6.9-15.4,15.4v113.5h216.3V15.4C348.7,6.9,341.8,0,333.3,0C333.3,0,333.3,0,333.3,0
	z"/>
<path class="st2" d="M212.3,18.1L18.1,212.3C6.5,223.9,0,239.6,0,256c0,23,8.5,45.2,23.9,62.2H256V0C239.6,0,223.9,6.5,212.3,18.1z"
	/>
<path class="st3" d="M23.9,318.2c-10,46.5,16.9,93.1,62.2,107.7H256V0L23.9,318.2z"/>
<path class="st2" d="M86.1,425.9c14.6,45.3,61.2,72.2,107.7,62.2H256V0L86.1,425.9z"/>
<path class="st1" d="M493.9,212.3L299.7,18.1C288.1,6.5,272.4,0,256,0v8.3c4.7,2.7,9,6,12.8,9.8l188.4,300.1H488
	c15.4-17,24-39.2,24-62.2C512,239.6,505.5,223.9,493.9,212.3z"/>
<path class="st2" d="M463,212.3L268.8,18.1c-3.8-3.8-8.1-7.1-12.8-9.8v309.9h201.1c15.4-17,24-39.2,23.9-62.2
	C481.1,239.6,474.6,223.9,463,212.3z"/>
<path class="st4" d="M270.3,19.6L256,0v8.3c4.7,2.7,9,6,12.8,9.8L270.3,19.6z"/>
<path class="st4" d="M488.1,318.2L472,296.1l-77-30.9v160.7h30.9C471.2,411.3,498.1,364.7,488.1,318.2L488.1,318.2z"/>
<path class="st3" d="M446.8,384c11.5-19.9,15.2-43.4,10.4-65.8c6-6.6,11-14,14.9-22.1L270.3,19.6l-1.5-1.5
	c-3.8-3.8-8.1-7.1-12.8-9.8v417.6h139C416.9,418.8,435.3,403.9,446.8,384z"/>
<path class="st1" d="M420.7,412.9L322.2,382v106.8c45.4,7.7,89.6-19.2,103.7-63L420.7,412.9z"/>
<path class="st4" d="M256,0v8.3c1.5,0.9,3,1.8,4.4,2.8L256,0z"/>
<path class="st2" d="M256,8.3v479.8h62.2c1.3,0.3,2.7,0.5,4,0.8c34.1-5.8,62.2-30.1,72.8-63c9.2-3,17.9-7.4,25.7-13L260.4,11.1
	C259,10.1,257.5,9.2,256,8.3z"/>
<path class="st3" d="M193.8,488.1c35.3,31.9,89.1,31.9,124.4,0L256,0L193.8,488.1z"/>
</svg>
