<svg id="Capa_1" enable-background="new 0 0 512 512" height="512" viewBox="0 0 512 512" width="512" xmlns="http://www.w3.org/2000/svg"><path d="m427.058 307.55-7.745 63.542c-1.488 12.206-12.67 20.839-24.856 19.187l-61.676-8.359z" fill="#fd6930"/><path d="m427.06 307.545-7.749 63.546c-1.484 12.211-12.664 20.835-24.854 19.187l-61.681-8.357 16.919-13.344 30.645 4.153c12.18 1.649 23.36-6.986 24.854-19.186l3.874-31.809z" fill="#fd5426"/><path d="m84.941 307.55 7.745 63.542c1.488 12.206 12.67 20.839 24.856 19.187l61.676-8.359z" fill="#fd6930"/><path d="m16.377 189.555c6.697-7.214 14.986-12.826 24.259-16.177 14.798-5.348 31.232-.493 41.104 12.173l151.374 194.223-13.456 14.494-13.456 14.494-191.467-151.037c-12.486-9.85-17.698-26.794-13.063-42.378 2.903-9.762 8.008-18.578 14.705-25.792z" fill="#ffd1be"/><path d="m495.622 189.555c-6.697-7.214-14.987-12.826-24.259-16.177-14.798-5.348-31.232-.493-41.104 12.173l-151.373 194.224 13.456 14.494 13.456 14.494 191.466-151.038c12.486-9.85 17.698-26.794 13.063-42.378-2.903-9.762-8.008-18.578-14.705-25.792z" fill="#ffd1be"/><path d="m497.262 257.724-191.462 151.039-13.457-14.498-13.457-14.488 3.411-4.379 1.278 1.371 13.457 14.487 191.472-151.029c12.478-9.851 17.692-26.801 13.055-42.381-.155-.526-.319-1.041-.484-1.556 4.049 5.719 7.203 12.149 9.253 19.052 4.637 15.591-.577 32.531-13.066 42.382z" fill="#ffc5ad"/><path d="m68.525 129.543c8.416-5.552 18.058-9.09 28.159-10.107 16.121-1.623 31.502 7.422 38.462 22.654l106.732 233.56-16.91 11.155-16.91 11.155-157.115-200.325c-10.246-13.064-11.524-31.414-3.224-45.899 5.199-9.075 12.39-16.641 20.806-22.193z" fill="#fd9468"/><path d="m443.475 129.543c-8.416-5.552-18.058-9.09-28.159-10.107-16.121-1.623-31.502 7.422-38.462 22.654l-106.734 233.56 16.91 11.155 16.91 11.155 157.116-200.325c10.246-13.064 11.524-31.414 3.224-45.899-5.199-9.075-12.389-16.641-20.805-22.193z" fill="#fd9468"/><path d="m354.826 92.56c-9.587-2.824-19.797-3.353-29.757-1.33-15.897 3.229-28.165 16.465-30.669 33.13l-38.4 255.555 19.261 5.673 19.261 5.673 95.788-238.652c6.247-15.564 2.451-33.532-9.469-44.953-7.466-7.154-16.429-12.272-26.015-15.096z" fill="#ffd1be"/><path d="m157.174 92.56c9.587-2.824 19.796-3.353 29.757-1.33 15.897 3.229 28.165 16.465 30.669 33.13l38.4 255.555-19.261 5.673-19.261 5.673-95.788-238.652c-6.247-15.564-2.451-33.532 9.469-44.953 7.466-7.154 16.428-12.272 26.015-15.096z" fill="#ffd1be"/><path d="m256.001 65.05c-10.545 0-21.091 2.524-30.676 7.572-15.298 8.057-24.133 25.219-22.075 42.945l31.563 271.81h21.187 21.187l31.563-271.81c2.058-17.726-6.777-34.888-22.076-42.945-9.584-5.048-20.128-7.572-30.673-7.572z" fill="#fd9468"/><path d="m319.96 446.948h-127.921c-7.37 0-13.345-5.975-13.345-13.345v-7.281c0-42.695 34.611-77.306 77.306-77.306 42.695 0 77.306 34.611 77.306 77.306v7.281c0 7.37-5.975 13.345-13.346 13.345z" fill="#fd6930"/><path d="m333.302 426.321v7.285c0 7.367-5.966 13.344-13.344 13.344h-127.916c-7.378 0-13.344-5.976-13.344-13.344v-7.285c0-.227 0-.443.01-.67h108.895c6.605 0 11.963-5.358 11.963-11.963v-6.522c0-19.135-7.759-36.467-20.299-49.007-2.906-2.906-6.069-5.564-9.459-7.914 15.817 2.854 29.954 10.521 40.856 21.412 13.982 13.994 22.638 33.314 22.638 54.664z" fill="#fd5426"/></svg>