<?xml version="1.0" encoding="iso-8859-1"?>
<!-- Generator: Adobe Illustrator 21.0.0, SVG Export Plug-In . SVG Version: 6.00 Build 0)  -->
<svg version="1.1" id="Capa_1" xmlns="http://www.w3.org/2000/svg" xmlns:xlink="http://www.w3.org/1999/xlink" x="0px" y="0px"
	 viewBox="0 0 512 512" style="enable-background:new 0 0 512 512;" xml:space="preserve">
<path style="fill:#FF9D73;" d="M364.169,0h-30.905l15.453,128.924h30.905V15.453C379.622,6.919,372.703,0,364.169,0z"/>
<path style="fill:#FFC28E;" d="M333.264,0H147.831c-8.534,0-15.453,6.919-15.453,15.453v113.471h216.338V15.453
	C348.716,6.919,341.798,0,333.264,0z"/>
<path style="fill:#FFE9B0;" d="M212.294,18.104L18.104,212.294C6.919,223.479,0,238.931,0,256c0,23.925,9.064,45.733,23.943,62.18
	H256V0C238.931,0,223.478,6.919,212.294,18.104z"/>
<path style="fill:#FFF5CE;" d="M23.943,318.18c-4.663,21.683-1.608,45.1,10.354,65.82c11.962,20.72,30.716,35.074,51.825,41.877H256
	V0L23.943,318.18z"/>
<path style="fill:#FFE9B0;" d="M86.123,425.877c6.803,21.109,21.158,39.863,41.877,51.825c20.72,11.962,44.137,15.017,65.82,10.354
	H256V0L86.123,425.877z"/>
<path style="fill:#FFC28E;" d="M493.896,212.294L299.706,18.104C288.521,6.919,273.069,0,256,0v8.29
	c4.688,2.713,8.997,6.009,12.801,9.815l188.35,300.075h30.905C502.936,301.733,512,279.925,512,256
	C512,238.931,505.081,223.479,493.896,212.294z"/>
<g>
	<path style="fill:#FFE9B0;" d="M462.99,212.294L268.801,18.104C264.997,14.3,260.687,11.003,256,8.29v309.89h201.151
		c14.88-16.447,23.943-38.255,23.943-62.18C481.095,238.931,474.176,223.479,462.99,212.294z"/>
	<path style="fill:#FFE9B0;" d="M270.288,19.59L256,0v8.29c4.688,2.713,8.997,6.009,12.801,9.815L270.288,19.59z"/>
	<path style="fill:#FFE9B0;" d="M488.057,318.18l-16.092-22.064l-76.993-30.905v160.667h30.905
		c21.109-6.803,39.863-21.158,51.825-41.877C489.666,363.28,492.719,339.863,488.057,318.18z"/>
</g>
<path style="fill:#FFF5CE;" d="M446.797,384c11.962-20.72,15.017-44.137,10.354-65.82c5.94-6.565,10.933-13.997,14.813-22.064
	L270.288,19.59l-1.487-1.487c-3.804-3.804-8.114-7.101-12.801-9.815v417.588h138.971C416.081,419.074,434.834,404.72,446.797,384z"
	/>
<path style="fill:#FFC28E;" d="M420.696,412.888l-98.501-30.905v106.844c20.535,3.482,42.358,0.103,61.805-11.125
	c20.72-11.962,35.074-30.716,41.877-51.825L420.696,412.888z"/>
<g>
	<path style="fill:#FFE9B0;" d="M256,0v8.29c1.52,0.879,2.998,1.818,4.432,2.82L256,0z"/>
	<path style="fill:#FFE9B0;" d="M256,8.29v479.767h62.18c1.332,0.286,2.671,0.542,4.016,0.771
		c10.591-1.788,21.051-5.438,30.899-11.125c20.72-11.962,35.074-30.716,41.877-51.825c9.138-2.945,17.829-7.31,25.725-12.989
		L260.432,11.109C258.998,10.108,257.52,9.169,256,8.29z"/>
</g>
<path style="fill:#FFF5CE;" d="M193.82,488.057C210.267,502.936,232.075,512,256,512c23.925,0,45.733-9.064,62.18-23.943L256,0
	L193.82,488.057z"/>
<g>
</g>
<g>
</g>
<g>
</g>
<g>
</g>
<g>
</g>
<g>
</g>
<g>
</g>
<g>
</g>
<g>
</g>
<g>
</g>
<g>
</g>
<g>
</g>
<g>
</g>
<g>
</g>
<g>
</g>
</svg>
