<?xml version="1.0" encoding="utf-8"?>
<!-- Generator: Adobe Illustrator 21.0.0, SVG Export Plug-In . SVG Version: 6.00 Build 0)  -->
<svg version="1.1"
	 id="圖層_1" xmlns:cc="http://creativecommons.org/ns#" xmlns:dc="http://purl.org/dc/elements/1.1/" xmlns:rdf="http://www.w3.org/1999/02/22-rdf-syntax-ns#"
	 xmlns="http://www.w3.org/2000/svg" xmlns:xlink="http://www.w3.org/1999/xlink" x="0px" y="0px" viewBox="0 0 283.5 283.5"
	 style="enable-background:new 0 0 283.5 283.5;" xml:space="preserve">
<style type="text/css">
	.st0{fill:#1DA1F2;}
	.st1{fill:#FFFFFF;}
</style>
<circle class="st0" cx="141.7" cy="141.7" r="141.7"/>
<g transform="translate(-539.18 -568.86)">
	<path class="st1" d="M646.8,785.4c69.4,0,107.4-57.5,107.4-107.4c0-1.6,0-3.3-0.1-4.9c7.4-5.3,13.8-12,18.8-19.5
		c-6.8,3-14,5-21.7,5.9c7.8-4.7,13.8-12.1,16.6-20.9c-7.3,4.3-15.4,7.5-24,9.2c-6.9-7.3-16.7-11.9-27.6-11.9
		c-20.8,0-37.8,16.9-37.8,37.7c0,3,0.3,5.8,1,8.6c-31.4-1.6-59.2-16.6-77.8-39.4c-3.2,5.6-5.1,12.1-5.1,19
		c0,13.1,6.7,24.7,16.8,31.4c-6.2-0.2-12-1.9-17.1-4.7c0,0.2,0,0.3,0,0.5c0,18.3,13,33.5,30.3,37c-3.2,0.9-6.5,1.3-10,1.3
		c-2.4,0-4.8-0.2-7.1-0.7c4.8,15,18.7,25.9,35.3,26.2c-12.9,10.1-29.2,16.2-46.9,16.2c-3,0-6-0.2-9-0.5
		C605.6,779.1,625.5,785.4,646.8,785.4"/>
</g>
</svg>
